# xmcd
#
# Track frame offsets:
#	150
#	19119
#	35112
#	54876
#	72429
#	89545
#	104187
#	121319
#	142267
#	158469
#	177073
#
# Disc length: 2664 seconds
#
# Revision: 0
# Processed by: cddbd v1.5.2PL0 Copyright (c) Steve Scherf et al.
# Submitted via: audiograbber 1.83.01
#
DISCID=990a660b
DTITLE=Electric Light Orchestra - Greatest hits
DYEAR=1979
DGENRE=Rock
TTITLE0=Evil woman
TTITLE1=Livin' thing
TTITLE2=Can't get it out of my head
TTITLE3=Showdown
TTITLE4=Turn to stone
TTITLE5=Rockaria
TTITLE6=Sweet talkin' woman
TTITLE7=Telephone line
TTITLE8=Ma ma ma Belle
TTITLE9=Strange magic
TTITLE10=Mr. Blue Sky
EXTD=LABEL =CBS Inc.\nID =ZK36310\nUPC =07464-36310-2\nCOPYRIGHT =1979, YEA
EXTD=R: 1979
EXTT0=
EXTT1=
EXTT2=
EXTT3=
EXTT4=
EXTT5=
EXTT6=
EXTT7=
EXTT8=
EXTT9=
EXTT10=
PLAYORDER=
